<?xml version="1.0" encoding="UTF-8"?>
<svg width="752pt" height="752pt" version="1.1" viewBox="0 0 752 752" xmlns="http://www.w3.org/2000/svg">
 <path d="m376 258.08c-84.77 0-159.12 44.516-200.8 111.77-2.3672 3.7891-2.3672 8.9961 0 12.785 41.676 66.777 116.03 111.29 200.8 111.29s159.12-44.516 200.8-111.77c2.3672-3.7891 2.3672-8.9961 0-12.785-41.672-66.773-116.02-111.29-200.8-111.29zm0 196.06c-43.098 0-78.141-35.047-78.141-78.141s35.047-78.141 78.141-78.141c43.098 0 78.141 35.047 78.141 78.141 0 43.098-35.043 78.141-78.141 78.141z"/>
</svg>
