<?xml version="1.0" encoding="UTF-8"?>
<svg width="752pt" height="752pt" version="1.1" viewBox="0 0 752 752" xmlns="http://www.w3.org/2000/svg">
 <g>
  <path d="m576.32 370.32c-15.156-24.152-34.57-45.938-57.305-62.984l-67.246 50.668c1.4219 6.1562 2.3672 12.312 2.3672 18.469 0 43.098-35.047 78.141-78.141 78.141-14.207 0-27.469-3.7891-38.832-10.418l-45.938 34.57c26.52 10.422 54.934 15.633 84.77 15.633 84.77 0 159.12-44.516 200.8-111.77 2.3711-3.3164 2.3711-8.5273-0.47266-12.312z"/>
  <path d="m534.18 237.71-57.773 43.57c-30.309-14.207-64.406-22.73-100.4-22.73-84.77 0-158.65 44.516-200.32 111.77-2.3672 3.7891-2.3672 8.9961 0 12.785 17.996 28.887 42.148 53.516 70.09 71.984l-48.777 36.465c-2.3672 1.8945-2.8398 5.2109-0.94531 7.5781l9.9453 13.262c1.8945 2.3672 5.2109 2.8398 7.5781 0.94531l337.19-253.84c2.3672-1.8945 2.8398-5.2109 0.94531-7.5781l-9.9531-12.785c-1.8945-2.3672-5.207-2.8398-7.5781-1.4219zm-236.32 138.76c0-43.098 35.047-78.141 78.141-78.141 19.891 0 37.887 7.5781 51.621 19.418l-122.18 92.344c-4.7344-10.418-7.5781-21.309-7.5781-33.621z"/>
 </g>
</svg>
